<?xml version="1.0" encoding="utf-8"?>
<!-- Svg Vector Icons : http://www.onlinewebfonts.com/icon -->
<!DOCTYPE svg PUBLIC "-//W3C//DTD SVG 1.1//EN" "http://www.w3.org/Graphics/SVG/1.1/DTD/svg11.dtd">
<svg version="1.1" xmlns="http://www.w3.org/2000/svg" xmlns:xlink="http://www.w3.org/1999/xlink" x="0px" y="0px" viewBox="0 0 256 256" enable-background="new 0 0 256 256" xml:space="preserve">
<metadata> Svg Vector Icons : http://www.onlinewebfonts.com/icon </metadata>
<g><g><path fill="#000000" d="M132.7,231.8c-57.3,0-103.8-46.5-103.8-103.8c0-57.3,46.5-103.8,103.8-103.8c40.3,0,75.2,23,92.4,56.6H246C227.5,36.5,183.7,5.3,132.7,5.3C64.9,5.3,10,60.2,10,128s54.9,122.7,122.7,122.7c51,0,94.8-31.2,113.3-75.5h-20.9C207.9,208.8,173.1,231.8,132.7,231.8z M66.6,128c0,36.5,29.6,66.1,66.1,66.1c36.5,0,66.1-29.6,66.1-66.1c0-36.5-29.6-66.1-66.1-66.1C96.2,61.9,66.6,91.5,66.6,128z"/></g></g>
</svg>